<?xml version="1.0" standalone="no"?>
<!DOCTYPE svg PUBLIC "-//W3C//DTD SVG 20010904//EN"
 "http://www.w3.org/TR/2001/REC-SVG-20010904/DTD/svg10.dtd">
<svg version="1.0" xmlns="http://www.w3.org/2000/svg"
 width="700.000000pt" height="700.000000pt" viewBox="0 0 700.000000 700.000000"
 preserveAspectRatio="xMidYMid meet">
<metadata>
Created by potrace 1.14, written by Peter Selinger 2001-2017
</metadata>
<g transform="translate(0.000000,700.000000) scale(0.100000,-0.100000)"
fill="#000000" stroke="none">
<path d="M3319 6776 c-2 -2 -31 -6 -64 -10 -66 -7 -107 -13 -145 -22 -14 -3
-38 -8 -55 -11 -36 -5 -147 -36 -230 -64 -292 -99 -562 -266 -786 -489 -128
-126 -191 -202 -279 -336 -50 -76 -164 -284 -165 -301 0 -1 -27 -4 -60 -8
-434 -46 -825 -282 -1073 -647 -75 -110 -173 -328 -198 -443 -34 -150 -38
-194 -39 -355 0 -195 15 -304 66 -460 42 -127 159 -349 234 -439 247 -301 544
-478 915 -546 84 -16 224 -20 665 -20 285 0 473 -3 477 -9 3 -5 3 -19 -2 -31
-4 -12 -11 -44 -14 -72 -3 -28 -7 -61 -10 -74 -6 -26 -13 -66 -22 -119 -3 -19
-12 -71 -19 -115 -16 -86 -20 -115 -30 -185 -4 -25 -11 -67 -16 -95 -5 -27
-12 -66 -15 -85 -3 -19 -7 -46 -10 -60 -2 -14 -9 -54 -14 -90 -6 -36 -13 -78
-16 -95 -21 -118 20 -208 117 -262 34 -18 42 -19 509 -23 l25 0 -2 -442 c-2
-490 0 -517 58 -577 78 -82 202 -93 292 -27 16 12 121 151 235 311 113 159
218 306 233 325 14 19 108 150 208 290 99 140 247 347 327 460 81 113 153 220
161 238 48 115 -24 260 -146 291 -20 5 -123 9 -229 9 -107 0 -195 2 -197 4 -2
2 14 75 36 163 23 88 42 167 44 175 2 8 8 33 14 55 l10 40 738 1 c895 0 877
-1 1093 71 342 114 640 407 765 753 58 160 70 240 69 450 -1 150 -4 176 -32
283 -36 136 -106 291 -184 404 -48 70 -183 216 -248 268 -89 72 -312 195 -352
195 -8 0 -18 4 -24 9 -24 22 -245 64 -341 65 l-41 1 -27 100 c-181 675 -681
1213 -1340 1441 -77 27 -281 78 -360 90 -27 4 -61 9 -75 11 -34 5 -426 13
-431 9z m341 -441 c484 -40 959 -327 1232 -745 38 -59 119 -211 136 -257 6
-15 20 -53 31 -83 34 -88 52 -159 77 -310 24 -138 54 -187 140 -229 32 -16 63
-19 187 -20 82 -1 172 -6 200 -11 488 -92 783 -564 646 -1035 -72 -245 -284
-464 -524 -540 -138 -43 -77 -42 -2210 -40 -1117 1 -2041 5 -2055 8 -14 4 -38
9 -55 13 -173 33 -373 144 -509 280 -293 294 -379 728 -220 1107 96 230 296
437 516 536 63 28 145 57 186 66 12 3 30 7 40 9 41 9 122 17 217 21 116 4 140
11 193 60 29 25 48 58 72 118 171 431 481 751 905 934 67 29 154 57 256 82
100 24 128 28 239 37 47 4 86 8 88 9 4 3 114 -2 212 -10z m-10 -3722 c0 -7
-34 -150 -75 -318 -41 -167 -75 -319 -75 -337 0 -40 29 -105 61 -140 50 -53
83 -63 240 -68 l145 -5 -220 -309 -221 -309 -5 235 -5 235 -30 48 c-22 36 -45
57 -84 77 l-53 28 -225 0 c-123 0 -222 3 -220 8 3 4 8 29 11 56 4 27 13 83 21
125 8 42 16 94 20 116 11 76 16 110 26 155 5 25 11 63 14 85 12 114 50 311 60
320 19 16 615 14 615 -2z"/>
<path d="M1553 2385 c-27 -12 -61 -36 -75 -53 -14 -17 -106 -191 -204 -387
-168 -337 -177 -358 -177 -412 0 -133 108 -231 238 -217 56 5 91 22 131 63 42
43 382 726 390 782 8 61 -9 117 -52 167 -64 75 -164 98 -251 57z"/>
<path d="M5413 2398 c-25 -5 -58 -24 -85 -47 -37 -33 -66 -86 -208 -372 -91
-184 -167 -336 -170 -339 -4 -3 -11 -23 -18 -45 -51 -175 120 -331 292 -265
69 26 96 68 279 437 197 396 204 417 166 504 -47 103 -142 151 -256 127z"/>
<path d="M1795 1301 c-43 -13 -83 -41 -106 -73 -14 -18 -78 -141 -144 -273
-111 -224 -119 -244 -119 -300 -2 -126 95 -217 229 -217 39 0 115 35 144 66
11 12 77 136 148 276 122 243 128 258 127 315 0 124 -95 217 -218 214 -23 -1
-50 -4 -61 -8z"/>
<path d="M5593 1289 c-24 -12 -54 -35 -68 -51 -42 -50 -265 -505 -272 -554
-27 -201 223 -326 366 -183 32 32 60 83 203 374 54 111 80 174 82 205 12 163
-165 282 -311 209z"/>
</g>
</svg>
